g CSN_Exploconut_Coconut_GEO
v 0.038262192 0.06326218 0.006852247
v -0.00064985454 0.055950493 0.043637343
v -0.0005750954 0.07901895 0.006567687
v -0.056280866 0.055465773 0.006251782
v -0.040039375 0.039296634 0.043413073
v -0.027996324 0.02738621 0.052885473
v -0.07901654 -0.0005775988 0.0062156096
v -0.056114465 -0.00033403933 0.043388963
v -0.06540118 -0.03278325 0.006369941
v -0.00024472177 0.07225467 -0.036820114
v -0.00047140568 0.07686548 -0.0072502345
v -0.022418514 0.06656112 -0.013802297
v -0.028985038 0.060103104 -0.036981683
v -0.017347112 0.05201733 -0.05146036
v -2.0451844E-05 0.05698985 -0.05399485
v 0.016915549 0.05428897 -0.04915014
v 0.023115527 0.06277746 -0.036646485
v -0.00024472177 0.07225467 -0.036820114
v 0.023115527 0.06277746 -0.036646485
v 0.018808581 0.06778616 -0.015345655
v -0.00047140568 0.07686548 -0.0072502345
v -0.00044246763 0.00013620406 0.074560076
v 0.03955476 -0.039147213 0.04409071
v 0.00016523153 -0.05580107 0.04386644
v 0.056280956 -0.05546587 0.007209152
v 0.0005751923 -0.07901904 0.00689324
v 0.051810026 -0.05086713 -0.036231704
v -0.03946303 -0.039723564 0.04357706
v 0.00081151724 -0.072430804 -0.036521085
v 0.034953605 -0.03413852 -0.063390076
v -0.055465773 -0.05628337 0.0064832866
v 0.0008139312 -0.04857379 -0.06358541
v 0.0005317852 -0.00016523153 -0.074560165
v -0.05049567 -0.051614694 -0.03689728
v -0.033535548 -0.0346377 -0.0638362
v -0.05470133 -0.04167206 -0.03694551
v -0.06540118 -0.03278325 0.006369941
v -0.056114465 -0.00033403933 0.043388963
v -0.027996324 0.02738621 0.052885473
v -0.00064985454 0.055950493 0.043637343
v 0.03897841 0.03987298 0.043926723
v 0.038262192 0.06326218 0.006852247
v 0.055632263 0.00048346072 0.04411482
v 0.03955476 -0.039147213 0.04409071
v 0.05546587 0.05628328 0.006980054
v 0.05106246 0.05144097 -0.036441505
v 0.079016626 0.0005775094 0.0072453246
v 0.056280956 -0.05546587 0.007209152
v 0.07262373 0.00044005364 -0.036197945
v 0.034454424 0.034353048 -0.06353235
v 0.051810026 -0.05086713 -0.036231704
v 0.048889697 0.00021096319 -0.06337078
v 0.034953605 -0.03413852 -0.063390076
v -0.056280866 0.055465773 0.006251782
v -0.07901654 -0.0005775988 0.0062156096
v -0.07205935 -0.00061618537 -0.037140843
v -0.06540118 -0.03278325 0.006369941
v -0.05470133 -0.04167206 -0.03694551
v -0.033535548 -0.0346377 -0.0638362
v -0.047970816 -0.0004956126 -0.06400019
v 0.0005317852 -0.00016523153 -0.074560165
v -0.05124323 0.050693408 -0.037109494
v -0.03403473 0.033853866 -0.06397848
v 0.000107355416 0.048289135 -0.06378556
v 0.034454424 0.034353048 -0.06353235
v -0.022418514 0.06656112 -0.013802297
v -0.00047140568 0.07686548 -0.0072502345
v -0.028985038 0.060103104 -0.036981683
v -0.0005750954 0.07901895 0.006567687
v -0.017347112 0.05201733 -0.05146036
v -2.0451844E-05 0.05698985 -0.05399485
v 0.016915549 0.05428897 -0.04915014
v 0.018808581 0.06778616 -0.015345655
v 0.038262192 0.06326218 0.006852247
v 0.05106246 0.05144097 -0.036441505
v 0.023115527 0.06277746 -0.036646485
vt 0.76077235 0.039923668
vt 0.7616097 0.04243529
vt 0.759935 0.05750537
vt 0.76077235 0.058342576
vt 0.7616097 0.059179783
vt 0.76244676 0.038249254
vt 0.76244676 0.059179783
vt 0.7632841 0.043272495
vt 0.7641212 0.04243529
vt 0.7649585 0.09769201
vt 0.7649585 0.09852922
vt 0.7649585 0.09852922
vt 0.7657956 0.09852922
vt 0.7657956 0.09769201
vt 0.7657956 0.096854806
vt 0.7649585 0.096854806
vt 0.7649585 0.096854806
vt 0.7649585 0.09769201
vt 0.7649585 0.096854806
vt 0.7649585 0.09769201
vt 0.7649585 0.09852922
vt 0.7632841 0.017318606
vt 0.76244676 0.017318606
vt 0.76244676 0.018155813
vt 0.7616097 0.017318606
vt 0.76244676 0.018155813
vt 0.7616097 0.017318606
vt 0.7632841 0.018155813
vt 0.7616097 0.018155813
vt 0.76077235 0.018155813
vt 0.76244676 0.01899314
vt 0.76077235 0.01899314
vt 0.75909793 0.018155813
vt 0.7616097 0.019830346
vt 0.76077235 0.019830346
vt 0.7616097 0.019830346
vt 0.7632841 0.019830346
vt 0.7641212 0.018155813
vt 0.7641212 0.0164814
vt 0.7632841 0.015644193
vt 0.76244676 0.015644193
vt 0.7616097 0.014806986
vt 0.76244676 0.0164814
vt 0.76244676 0.017318606
vt 0.7616097 0.015644193
vt 0.759935 0.015644193
vt 0.7616097 0.0164814
vt 0.7616097 0.017318606
vt 0.76077235 0.017318606
vt 0.759935 0.0164814
vt 0.7616097 0.017318606
vt 0.76077235 0.017318606
vt 0.76077235 0.018155813
vt 0.76077235 0.058342576
vt 0.76244676 0.059179783
vt 0.76244676 0.058342576
vt 0.7641212 0.04243529
vt 0.7641212 0.04159808
vt 0.7632841 0.040760875
vt 0.76244676 0.056668162
vt 0.76244676 0.03908646
vt 0.76077235 0.05750537
vt 0.7616097 0.056668162
vt 0.76077235 0.055830836
vt 0.7616097 0.03908646
vt 0.76077235 0.05750537
vt 0.759935 0.05750537
vt 0.76077235 0.05750537
vt 0.759935 0.05750537
vt 0.76077235 0.056668162
vt 0.76077235 0.055830836
vt 0.76077235 0.055830836
vt 0.76077235 0.056668162
vt 0.76077235 0.039923668
vt 0.76077235 0.03908646
vt 0.76077235 0.055830836
vn 0.3716854 0.9107823 0.17979328
vn -0.0068743825 0.7176396 0.69638073
vn -0.0068743825 0.9803137 0.1973265
vn -0.7021882 0.68673676 0.18794785
vn -0.51677114 0.5013197 0.6939929
vn -0.3468055 0.33907992 0.8745003
vn -0.9803137 -0.008577049 0.19725984
vn -0.72536534 -0.00085133314 0.68836355
vn -0.90305656 -0.3794111 0.20133565
vn -0.0068743825 0.918508 -0.39534262
vn -0.0068743825 0.98803943 -0.15404809
vn -0.3854341 0.9107823 -0.14804125
vn -0.35453123 0.84125096 -0.4081721
vn -0.30045134 0.7099139 -0.6369861
vn 0.00085133314 0.7485425 -0.6630863
vn 0.2944283 0.7176396 -0.63111436
vn 0.34850824 0.8489767 -0.39721605
vn -0.0068743825 0.918508 -0.39534262
vn 0.34850824 0.8489767 -0.39721605
vn 0.3716854 0.918508 -0.13488145
vn -0.0068743825 0.98803943 -0.15404809
vn -0.0068743825 -0.00085133314 0.999976
vn 0.50302243 -0.50302243 0.70280635
vn 0.00085133314 -0.7193423 0.6946553
vn 0.69616514 -0.6884394 0.20348282
vn 0.008577049 -0.9820164 0.18860081
vn 0.6575366 -0.6420852 -0.39417273
vn -0.5090454 -0.51074815 0.69282687
vn 0.008577049 -0.9202107 -0.3913294
vn 0.4025882 -0.39486247 -0.8258368
vn -0.6944625 -0.69616514 0.18186805
vn 0.008577049 -0.5648281 -0.825164
vn 0.008577049 -0.00085133314 -0.99996287
vn -0.64038247 -0.6498109 -0.40945825
vn -0.3854341 -0.4025882 -0.83027905
vn -0.84125096 -0.35623395 -0.40668687
vn -0.90305656 -0.3794111 0.20133565
vn -0.72536534 -0.00085133314 0.68836355
vn -0.3468055 0.33907992 0.8745003
vn -0.0068743825 0.7176396 0.69638073
vn 0.49529672 0.5090454 0.70395595
vn 0.3716854 0.9107823 0.17979328
vn 0.7116166 0.0068743825 0.7025344
vn 0.50302243 -0.50302243 0.70280635
vn 0.6884394 0.7021882 0.18161198
vn 0.6420852 0.6481082 -0.40949038
vn 0.9820164 0.0068743825 0.1886705
vn 0.69616514 -0.6884394 0.20348282
vn 0.9202107 0.0068743825 -0.391363
vn 0.4025882 0.40088552 -0.82292986
vn 0.6575366 -0.6420852 -0.39417273
vn 0.5648281 -0.00085133314 -0.8252082
vn 0.4025882 -0.39486247 -0.8258368
vn -0.7021882 0.68673676 0.18794785
vn -0.9803137 -0.008577049 0.19725984
vn -0.9107823 -0.008577049 -0.4127979
vn -0.90305656 -0.3794111 0.20133565
vn -0.84125096 -0.35623395 -0.40668687
vn -0.3854341 -0.4025882 -0.83027905
vn -0.5553997 -0.008577049 -0.83153933
vn 0.008577049 -0.00085133314 -0.99996287
vn -0.6481082 0.64038247 -0.41214818
vn -0.3931598 0.3931598 -0.8311743
vn 0.00085133314 0.5553997 -0.8315831
vn 0.4025882 0.40088552 -0.82292986
vn -0.3854341 0.9107823 -0.14804125
vn -0.0068743825 0.98803943 -0.15404809
vn -0.35453123 0.84125096 -0.4081721
vn -0.0068743825 0.9803137 0.1973265
vn -0.30045134 0.7099139 -0.6369861
vn 0.00085133314 0.7485425 -0.6630863
vn 0.2944283 0.7176396 -0.63111436
vn 0.3716854 0.918508 -0.13488145
vn 0.3716854 0.9107823 0.17979328
vn 0.6420852 0.6481082 -0.40949038
vn 0.34850824 0.8489767 -0.39721605
g CSN_Exploconut_Coconut_GEO_0
f 3/3/3 2/2/2 1/1/1
f 3/3/3 4/4/4 2/2/2
f 4/4/4 5/5/5 2/2/2
f 5/5/5 6/6/6 2/2/2
f 4/4/4 7/7/7 5/5/5
f 5/5/5 8/8/8 6/6/6
f 7/7/7 8/8/8 5/5/5
f 7/7/7 9/9/9 8/8/8
f 12/12/12 11/11/11 10/10/10
f 13/13/13 12/12/12 10/10/10
f 14/14/14 13/13/13 10/10/10
f 15/15/15 14/14/14 10/10/10
f 16/16/16 15/15/15 10/10/10
f 17/17/17 16/16/16 10/10/10
f 20/20/20 19/19/19 18/18/18
f 21/21/21 20/20/20 18/18/18
f 24/24/24 23/23/23 22/22/22
f 25/25/25 23/23/23 24/24/24
f 26/26/26 25/25/25 24/24/24
f 27/27/27 25/25/25 26/26/26
f 28/28/28 24/24/24 22/22/22
f 26/26/26 24/24/24 28/28/28
f 29/29/29 27/27/27 26/26/26
f 30/30/30 27/27/27 29/29/29
f 31/31/31 26/26/26 28/28/28
f 29/29/29 26/26/26 31/31/31
f 32/32/32 30/30/30 29/29/29
f 30/30/30 32/32/32 33/33/33
f 32/32/32 29/29/29 34/34/34
f 34/34/34 29/29/29 31/31/31
f 32/32/32 35/35/35 33/33/33
f 35/35/35 32/32/32 34/34/34
f 34/34/34 36/36/36 35/35/35
f 36/36/36 34/34/34 31/31/31
f 37/37/37 36/36/36 31/31/31
f 37/37/37 31/31/31 38/38/38
f 31/31/31 28/28/28 38/38/38
f 38/38/38 28/28/28 22/22/22
f 39/39/39 38/38/38 22/22/22
f 22/22/22 40/40/40 39/39/39
f 41/41/41 40/40/40 22/22/22
f 42/42/42 40/40/40 41/41/41
f 43/43/43 41/41/41 22/22/22
f 44/44/44 43/43/43 22/22/22
f 45/45/45 42/42/42 41/41/41
f 45/45/45 41/41/41 43/43/43
f 46/46/46 42/42/42 45/45/45
f 47/47/47 43/43/43 44/44/44
f 47/47/47 45/45/45 43/43/43
f 46/46/46 45/45/45 47/47/47
f 48/48/48 47/47/47 44/44/44
f 49/49/49 46/46/46 47/47/47
f 49/49/49 47/47/47 48/48/48
f 50/50/50 46/46/46 49/49/49
f 51/51/51 49/49/49 48/48/48
f 52/52/52 50/50/50 49/49/49
f 52/52/52 49/49/49 51/51/51
f 50/50/50 52/52/52 33/33/33
f 53/53/53 52/52/52 51/51/51
f 52/52/52 53/53/53 33/33/33
f 56/56/56 55/55/55 54/54/54
f 55/55/55 56/56/56 57/57/57
f 56/56/56 58/58/58 57/57/57
f 59/59/59 58/58/58 56/56/56
f 60/60/60 59/59/59 56/56/56
f 59/59/59 60/60/60 61/61/61
f 60/60/60 56/56/56 62/62/62
f 62/62/62 56/56/56 54/54/54
f 60/60/60 63/63/63 61/61/61
f 63/63/63 60/60/60 62/62/62
f 63/63/63 64/64/64 61/61/61
f 64/64/64 65/65/65 61/61/61
f 62/62/62 54/54/54 66/66/66
f 67/67/67 66/66/66 54/54/54
f 68/68/68 62/62/62 66/66/66
f 62/62/62 68/68/68 63/63/63
f 69/69/69 67/67/67 54/54/54
f 68/68/68 70/70/70 63/63/63
f 64/64/64 63/63/63 70/70/70
f 71/71/71 64/64/64 70/70/70
f 64/64/64 71/71/71 65/65/65
f 71/71/71 72/72/72 65/65/65
f 67/67/67 69/69/69 73/73/73
f 69/69/69 74/74/74 73/73/73
f 75/75/75 65/65/65 72/72/72
f 73/73/73 74/74/74 75/75/75
f 76/76/76 75/75/75 72/72/72
f 76/76/76 73/73/73 75/75/75
