g RockDebris06_GEO
v -0.11860607 -0.06802155 0.035536394
v 0.000981465 -0.09912437 0.10577701
v -0.018904865 -0.14217481 -0.025380507
v 0.047522396 0.08063573 -0.06503906
v 0.16689539 0.033417087 0.07261287
v 0.07069692 0.106891155 -0.013302967
v -0.13596039 0.048061818 -0.10532954
v -0.13253048 0.13922891 -0.00821656
v -0.17658867 -0.03631548 -0.021092035
v -0.11860607 -0.06802155 0.035536394
v -0.04311776 -0.08782175 -0.114263505
v -0.17658867 -0.03631548 -0.021092035
v -0.018904865 -0.14217481 -0.025380507
v 0.10877487 -0.064658605 0.11641313
v 0.13652363 -0.038671166 0.05073178
v 0.116243154 -0.07005321 0.070754275
v 0.14281753 -0.009354748 0.07763609
v 0.12774998 -0.009896189 0.121310666
v 0.14912248 0.02031565 0.10482019
v 0.16689539 0.033417087 0.07261287
v 0.16658992 0.011414796 0.039508656
v 0.15463397 -0.023177698 0.021160796
v 0.03807664 -0.12982583 -0.0101771355
v -0.04311776 -0.08782175 -0.114263505
v -0.018904865 -0.14217481 -0.025380507
v 0.08407289 -0.092114046 -0.039292887
v 0.012223363 -0.028527036 -0.15963444
v 0.11930239 -0.053130418 -0.071980044
v 0.073869556 0.019711431 -0.07961476
v 0.012223363 -0.028527036 -0.15963444
v 0.11930239 -0.053130418 -0.071980044
v 0.0151899755 0.07608846 -0.10376686
v -0.07959686 0.08669987 -0.1304962
v -0.13253048 0.13922891 -0.00821656
v 0.07069692 0.106891155 -0.013302967
v 0.011678904 0.08613804 0.0810367
v -0.04895082 0.16097456 -0.075670436
v -0.11860607 -0.06802155 0.035536394
v -0.03377068 0.02255157 0.13925122
v 0.000981465 -0.09912437 0.10577701
v -0.1424017 0.05332815 0.07537381
v 0.116243154 -0.07005321 0.070754275
v 0.08407289 -0.092114046 -0.039292887
v 0.03807664 -0.12982583 -0.0101771355
v 0.13652363 -0.038671166 0.05073178
v 0.15463397 -0.023177698 0.021160796
v 0.11930239 -0.053130418 -0.071980044
v 0.11930239 -0.053130418 -0.071980044
v 0.112163335 0.02912657 -0.04089226
v 0.073869556 0.019711431 -0.07961476
v 0.15463397 -0.023177698 0.021160796
v 0.16658992 0.011414796 0.039508656
v 0.011678904 0.08613804 0.0810367
v 0.16689539 0.033417087 0.07261287
v 0.14912248 0.02031565 0.10482019
v 0.07069692 0.106891155 -0.013302967
v 0.044097096 0.008692227 0.14307307
v 0.000981465 -0.09912437 0.10577701
v -0.03377068 0.02255157 0.13925122
v 0.06641516 -0.09082049 0.10122083
v 0.12774998 -0.009896189 0.121310666
v 0.10877487 -0.064658605 0.11641313
v -0.04895082 0.16097456 -0.075670436
v -0.13596039 0.048061818 -0.10532954
v -0.07959686 0.08669987 -0.1304962
v -0.13253048 0.13922891 -0.00821656
v -0.1424017 0.05332815 0.07537381
v 0.011678904 0.08613804 0.0810367
v -0.03377068 0.02255157 0.13925122
v -0.13253048 0.13922891 -0.00821656
v 0.12774998 -0.009896189 0.121310666
v 0.011678904 0.08613804 0.0810367
v 0.14912248 0.02031565 0.10482019
v 0.044097096 0.008692227 0.14307307
v -0.03377068 0.02255157 0.13925122
v -0.1424017 0.05332815 0.07537381
v -0.17658867 -0.03631548 -0.021092035
v -0.13253048 0.13922891 -0.00821656
v -0.11860607 -0.06802155 0.035536394
v 0.07069692 0.106891155 -0.013302967
v 0.0151899755 0.07608846 -0.10376686
v 0.047522396 0.08063573 -0.06503906
v -0.04895082 0.16097456 -0.075670436
v -0.07959686 0.08669987 -0.1304962
v 0.047522396 0.08063573 -0.06503906
v 0.16658992 0.011414796 0.039508656
v 0.16689539 0.033417087 0.07261287
v 0.112163335 0.02912657 -0.04089226
v 0.012223363 -0.028527036 -0.15963444
v -0.17658867 -0.03631548 -0.021092035
v -0.04311776 -0.08782175 -0.114263505
v -0.13596039 0.048061818 -0.10532954
v -0.07959686 0.08669987 -0.1304962
v 0.073869556 0.019711431 -0.07961476
v 0.047522396 0.08063573 -0.06503906
v 0.0151899755 0.07608846 -0.10376686
v 0.112163335 0.02912657 -0.04089226
v -0.018904865 -0.14217481 -0.025380507
v 0.000981465 -0.09912437 0.10577701
v 0.03807664 -0.12982583 -0.0101771355
v 0.06641516 -0.09082049 0.10122083
v 0.116243154 -0.07005321 0.070754275
v 0.10877487 -0.064658605 0.11641313
vt 0.15004097 0.34343523
vt 0.14409703 0.43457258
vt 0.15922686 0.3893792
vt 0.23465289 0.35388362
vt 0.21166255 0.39840686
vt 0.23465289 0.36599022
vt 0.20190986 0.24570996
vt 0.20324267 0.2547348
vt 0.16444767 0.25081387
vt 0.15004097 0.23547128
vt 0.18904349 0.23445779
vt 0.16444767 0.22104481
vt 0.15922686 0.24670888
vt 0.17116989 0.4332818
vt 0.19677934 0.4332818
vt 0.18189621 0.4332818
vt 0.19677934 0.4332818
vt 0.18189621 0.4332818
vt 0.19677934 0.4332818
vt 0.21166255 0.4332818
vt 0.21612634 0.4332818
vt 0.21166255 0.4332818
vt 0.1670328 0.30758053
vt 0.18904349 0.283396
vt 0.15922686 0.29732436
vt 0.19257742 0.31070292
vt 0.22120686 0.28638923
vt 0.21681277 0.3120951
vt 0.22819848 0.22660331
vt 0.22120686 0.20824024
vt 0.21681277 0.23800224
vt 0.23465289 0.21116823
vt 0.22274154 0.18931668
vt 0.20324267 0.29595065
vt 0.23465289 0.3287645
vt 0.19677934 0.3286355
vt 0.23465289 0.30269367
vt 0.15004097 0.33188245
vt 0.15890585 0.34568667
vt 0.14409703 0.34897035
vt 0.16639836 0.32921648
vt 0.18189621 0.41901478
vt 0.19257742 0.4040719
vt 0.1670328 0.40089774
vt 0.19677934 0.41901478
vt 0.21166255 0.41901478
vt 0.21681277 0.40548718
vt 0.21681277 0.38513893
vt 0.22932415 0.38407043
vt 0.22819848 0.3706311
vt 0.21166255 0.40474775
vt 0.21612634 0.40474775
vt 0.19677934 0.41705918
vt 0.21166255 0.49034995
vt 0.19677934 0.49034995
vt 0.23465289 0.41753715
vt 0.16804487 0.48797575
vt 0.14409703 0.48238072
vt 0.15890585 0.478883
vt 0.15365109 0.49055743
vt 0.18189621 0.4935204
vt 0.17116989 0.4935204
vt 0.23465289 0.26862332
vt 0.20190986 0.24095426
vt 0.22274154 0.25267363
vt 0.20324267 0.25518602
vt 0.16639836 0.3677747
vt 0.19677934 0.39148176
vt 0.15890585 0.39148176
vt 0.20324267 0.3587969
vt 0.20250414 0.53156585
vt 0.21738727 0.50583184
vt 0.21738727 0.53156585
vt 0.1886528 0.52181774
vt 0.17951378 0.50583184
vt 0.16639836 0.23199347
vt 0.16444767 0.22104481
vt 0.20324267 0.22385687
vt 0.15004097 0.23547128
vt 0.23465289 0.374389
vt 0.23465289 0.31600183
vt 0.23465289 0.34719566
vt 0.23465289 0.27778763
vt 0.22274154 0.24813098
vt 0.23465289 0.35388362
vt 0.21612634 0.39840686
vt 0.21166255 0.39840686
vt 0.22932415 0.37594128
vt 0.22120686 0.20824024
vt 0.16444767 0.18711922
vt 0.18904349 0.20477468
vt 0.20190986 0.18230096
vt 0.22274154 0.18931668
vt 0.22819848 0.2917148
vt 0.23465289 0.28647602
vt 0.23465289 0.2767183
vt 0.22932415 0.30197418
vt 0.15922686 0.5161973
vt 0.14409703 0.53300947
vt 0.1670328 0.52991766
vt 0.15365109 0.54823995
vt 0.18189621 0.553759
vt 0.17116989 0.553759
vn -0.5239337 -0.56626815 0.6362655
vn -0.16491497 -0.70430535 0.6904759
vn -0.1455598 -0.9332565 0.3283971
vn 0.64280355 0.51559955 -0.566534
vn 0.71486145 0.5505973 -0.4310634
vn 0.704194 0.45573568 -0.5444409
vn -0.7408444 0.07507612 -0.6674677
vn -0.85908204 0.43103385 -0.2760215
vn -0.90495336 -0.41380703 -0.09911215
vn -0.67290604 -0.72245246 0.15893358
vn -0.66401196 -0.40328887 -0.6296397
vn -0.90495336 -0.41380703 -0.09911215
vn -0.6706047 -0.7000467 -0.24540572
vn 0.8888256 -0.3870905 0.24525517
vn 0.8696067 -0.42667308 0.24846378
vn 0.87581605 -0.4413234 0.19539714
vn 0.86483854 -0.41937637 0.27600327
vn 0.87694603 -0.37714812 0.2978672
vn 0.8487396 -0.44380295 0.28754124
vn 0.84866726 -0.44398487 0.28747413
vn 0.8485492 -0.44462758 0.2868285
vn 0.8484323 -0.44513607 0.2863852
vn 0.3027862 -0.7781825 -0.55022943
vn 0.31380937 -0.7582358 -0.57149106
vn 0.31505257 -0.7690716 -0.55612123
vn 0.30270016 -0.76560944 -0.5676398
vn 0.314615 -0.748728 -0.58345854
vn 0.300423 -0.7574907 -0.5796153
vn 0.6282667 0.36566085 -0.6867119
vn 0.52640456 0.38300076 -0.7590841
vn 0.74609804 0.29435354 -0.5972384
vn 0.49365926 0.48927116 -0.71896744
vn 0.28790304 0.47016364 -0.8343008
vn 0.008649103 0.837627 0.5461743
vn 0.2296417 0.89821506 0.3747991
vn 0.104102366 0.8131457 0.57267505
vn 0.15033403 0.8712981 0.46716088
vn -0.5239337 -0.56626815 0.6362655
vn -0.38650784 -0.34326628 0.85602564
vn -0.16491497 -0.70430535 0.6904759
vn -0.5465665 -0.35600895 0.75797284
vn 0.75586 -0.648381 -0.09098272
vn 0.685029 -0.72751546 -0.038166028
vn 0.62398285 -0.7810106 -0.025842978
vn 0.74630743 -0.6643733 -0.040415123
vn 0.6936854 -0.72018516 0.011574801
vn 0.7196507 -0.692513 -0.050286736
vn 0.74609804 0.29435354 -0.5972384
vn 0.7349503 0.4618516 -0.4965292
vn 0.6282667 0.36566085 -0.6867119
vn 0.856842 0.09441652 -0.50686044
vn 0.7776522 0.41901708 -0.46870214
vn 0.104102366 0.8131457 0.57267505
vn 0.30823007 0.8344818 0.45676517
vn 0.19844693 0.6721285 0.71334577
vn 0.2296417 0.89821506 0.3747991
vn 0.03457166 -0.32870796 0.94379866
vn -0.16491497 -0.70430535 0.6904759
vn -0.38650784 -0.34326628 0.85602564
vn 0.2615683 -0.7483593 0.6095411
vn 0.052009933 -0.27756965 0.95929664
vn -0.08780091 -0.39009804 0.9165776
vn -0.6043076 0.602591 -0.521245
vn -0.7408444 0.07507612 -0.6674677
vn -0.56682205 0.33728403 -0.75163305
vn -0.85908204 0.43103385 -0.2760215
vn -0.17595905 0.70834863 0.6835793
vn 0.104102366 0.8131457 0.57267505
vn -0.064326845 0.6984893 0.7127234
vn 0.008649103 0.837627 0.5461743
vn 0.14911246 0.53024334 0.83463025
vn 0.104102366 0.8131457 0.57267505
vn 0.19844693 0.6721285 0.71334577
vn 0.23455156 0.66565984 0.70843667
vn -0.064326845 0.6984893 0.7127234
vn -0.9585837 0.06792931 0.27659166
vn -0.90495336 -0.41380703 -0.09911215
vn -0.85908204 0.43103385 -0.2760215
vn -0.67290604 -0.72245246 0.15893358
vn 0.704194 0.45573568 -0.5444409
vn 0.49365926 0.48927116 -0.71896744
vn 0.64280355 0.51559955 -0.566534
vn 0.4246163 0.5570725 -0.7137025
vn 0.28790304 0.47016364 -0.8343008
vn 0.64280355 0.51559955 -0.566534
vn 0.7776522 0.41901708 -0.46870214
vn 0.71486145 0.5505973 -0.4310634
vn 0.7349503 0.4618516 -0.4965292
vn -0.5185979 -0.20895895 -0.82909137
vn -0.90495336 -0.41380703 -0.09911215
vn -0.66401196 -0.40328887 -0.6296397
vn -0.7408444 0.07507612 -0.6674677
vn -0.56682205 0.33728403 -0.75163305
vn 0.6282667 0.36566085 -0.6867119
vn 0.64280355 0.51559955 -0.566534
vn 0.49365926 0.48927116 -0.71896744
vn 0.7349503 0.4618516 -0.4965292
vn -0.1455598 -0.9332565 0.3283971
vn -0.16491497 -0.70430535 0.6904759
vn 0.19815241 -0.9409747 0.27441233
vn 0.2615683 -0.7483593 0.6095411
vn 0.47052854 -0.8636536 0.18084612
vn -0.08780091 -0.39009804 0.9165776
g RockDebris06_GEO_0
f 3/3/3 2/2/2 1/1/1
f 6/6/6 5/5/5 4/4/4
f 9/9/9 8/8/8 7/7/7
f 12/12/12 11/11/11 10/10/10
f 13/13/13 10/10/10 11/11/11
f 16/16/16 15/15/15 14/14/14
f 17/17/17 14/14/14 15/15/15
f 14/14/14 17/17/17 18/18/18
f 19/19/19 18/18/18 17/17/17
f 19/19/19 17/17/17 20/20/20
f 21/21/21 20/20/20 17/17/17
f 17/17/17 15/15/15 21/21/21
f 22/22/22 21/21/21 15/15/15
f 25/25/25 24/24/24 23/23/23
f 26/26/26 23/23/23 24/24/24
f 24/24/24 27/27/27 26/26/26
f 28/28/28 26/26/26 27/27/27
f 31/31/31 30/30/30 29/29/29
f 32/32/32 29/29/29 30/30/30
f 33/33/33 32/32/32 30/30/30
f 36/36/36 35/35/35 34/34/34
f 37/37/37 34/34/34 35/35/35
f 40/40/40 39/39/39 38/38/38
f 41/41/41 38/38/38 39/39/39
f 44/44/44 43/43/43 42/42/42
f 45/45/45 42/42/42 43/43/43
f 45/45/45 43/43/43 46/46/46
f 47/47/47 46/46/46 43/43/43
f 50/50/50 49/49/49 48/48/48
f 49/49/49 51/51/51 48/48/48
f 52/52/52 51/51/51 49/49/49
f 55/55/55 54/54/54 53/53/53
f 56/56/56 53/53/53 54/54/54
f 59/59/59 58/58/58 57/57/57
f 60/60/60 57/57/57 58/58/58
f 57/57/57 60/60/60 61/61/61
f 62/62/62 61/61/61 60/60/60
f 65/65/65 64/64/64 63/63/63
f 66/66/66 63/63/63 64/64/64
f 69/69/69 68/68/68 67/67/67
f 70/70/70 67/67/67 68/68/68
f 73/73/73 72/72/72 71/71/71
f 74/74/74 71/71/71 72/72/72
f 75/75/75 74/74/74 72/72/72
f 78/78/78 77/77/77 76/76/76
f 79/79/79 76/76/76 77/77/77
f 82/82/82 81/81/81 80/80/80
f 80/80/80 81/81/81 83/83/83
f 83/83/83 81/81/81 84/84/84
f 87/87/87 86/86/86 85/85/85
f 85/85/85 86/86/86 88/88/88
f 91/91/91 90/90/90 89/89/89
f 90/90/90 92/92/92 89/89/89
f 89/89/89 92/92/92 93/93/93
f 96/96/96 95/95/95 94/94/94
f 97/97/97 94/94/94 95/95/95
f 100/100/100 99/99/99 98/98/98
f 100/100/100 101/101/101 99/99/99
f 100/100/100 102/102/102 101/101/101
f 103/103/103 101/101/101 102/102/102
