g RockDebris01_GEO
v -0.120921135 -0.0011955907 -0.073033124
v -0.12740125 -0.006636425 0.06884962
v -0.086418815 -0.11710567 -0.0057699084
v 0.11362392 0.007837321 -0.004330024
v 0.056261636 0.033201814 0.17313486
v 0.11065822 0.05483296 0.036726564
v 0.03086939 -0.0005405309 -0.17588708
v 0.033942506 0.12770046 -0.13984641
v -0.093448624 -0.000540548 -0.15560956
v -0.120921135 -0.0011955907 -0.073033124
v -0.009154558 -0.12770046 -0.07897298
v -0.093448624 -0.000540548 -0.15560956
v -0.086418815 -0.11710567 -0.0057699084
v -0.060996965 0.0013826218 0.16075507
v 0.008133389 -0.027208572 0.14799127
v -0.033760168 -0.03320707 0.14554599
v 0.014125392 0.010123902 0.16189411
v -0.019343125 0.04077004 0.17058113
v 0.020186374 0.047893222 0.17588708
v 0.056261636 0.033201814 0.17313486
v 0.06153795 -0.0039873626 0.16012686
v 0.044351924 -0.038534917 0.14643982
v -0.060869463 -0.11114616 0.048472583
v -0.009154558 -0.12770046 -0.07897298
v -0.086418815 -0.11710567 -0.0057699084
v 0.0025784317 -0.11200173 0.06742501
v 0.08244315 -0.12496911 -0.06349948
v 0.06396832 -0.11175615 0.075203925
v 0.09486716 -0.0524338 0.020848751
v 0.08244315 -0.12496911 -0.06349948
v 0.06396832 -0.11175615 0.075203925
v 0.1187121 -0.012785577 -0.050316006
v 0.09739754 -0.0005405266 -0.14627098
v 0.033942506 0.12770046 -0.13984641
v 0.11065822 0.05483296 0.036726564
v 0.013241723 0.112480946 0.035997212
v 0.12740119 0.08229097 -0.105033904
v -0.120921135 -0.0011955907 -0.073033124
v -0.084215105 0.112480916 0.035997212
v -0.12740125 -0.006636425 0.06884962
v -0.07663918 0.11924617 -0.09332816
v -0.033760168 -0.03320707 0.14554599
v 0.0025784317 -0.11200173 0.06742501
v -0.060869463 -0.11114616 0.048472583
v 0.008133389 -0.027208572 0.14799127
v 0.044351924 -0.038534917 0.14643982
v 0.06396832 -0.11175615 0.075203925
v 0.06396832 -0.11175615 0.075203925
v 0.09573833 -0.02955002 0.071148485
v 0.09486716 -0.0524338 0.020848751
v 0.044351924 -0.038534917 0.14643982
v 0.06153795 -0.0039873626 0.16012686
v 0.013241723 0.112480946 0.035997212
v 0.056261636 0.033201814 0.17313486
v 0.020186374 0.047893222 0.17588708
v 0.11065822 0.05483296 0.036726564
v -0.059226505 0.087128095 0.106728286
v -0.12740125 -0.006636425 0.06884962
v -0.084215105 0.112480916 0.035997212
v -0.08874631 -0.018086633 0.12125167
v -0.019343125 0.04077004 0.17058113
v -0.060996965 0.0013826218 0.16075507
v 0.12740119 0.08229097 -0.105033904
v 0.03086939 -0.0005405309 -0.17588708
v 0.09739754 -0.0005405266 -0.14627098
v 0.033942506 0.12770046 -0.13984641
v -0.07663918 0.11924617 -0.09332816
v 0.013241723 0.112480946 0.035997212
v -0.084215105 0.112480916 0.035997212
v 0.033942506 0.12770046 -0.13984641
v -0.019343125 0.04077004 0.17058113
v 0.013241723 0.112480946 0.035997212
v 0.020186374 0.047893222 0.17588708
v -0.059226505 0.087128095 0.106728286
v -0.084215105 0.112480916 0.035997212
v -0.07663918 0.11924617 -0.09332816
v -0.093448624 -0.000540548 -0.15560956
v 0.033942506 0.12770046 -0.13984641
v -0.120921135 -0.0011955907 -0.073033124
v 0.11065822 0.05483296 0.036726564
v 0.1187121 -0.012785577 -0.050316006
v 0.11362392 0.007837321 -0.004330024
v 0.12740119 0.08229097 -0.105033904
v 0.09739754 -0.0005405266 -0.14627098
v 0.11362392 0.007837321 -0.004330024
v 0.06153795 -0.0039873626 0.16012686
v 0.056261636 0.033201814 0.17313486
v 0.09573833 -0.02955002 0.071148485
v 0.08244315 -0.12496911 -0.06349948
v -0.093448624 -0.000540548 -0.15560956
v -0.009154558 -0.12770046 -0.07897298
v 0.03086939 -0.0005405309 -0.17588708
v 0.09739754 -0.0005405266 -0.14627098
v 0.09486716 -0.0524338 0.020848751
v 0.11362392 0.007837321 -0.004330024
v 0.1187121 -0.012785577 -0.050316006
v 0.09573833 -0.02955002 0.071148485
v -0.086418815 -0.11710567 -0.0057699084
v -0.12740125 -0.006636425 0.06884962
v -0.060869463 -0.11114616 0.048472583
v -0.08874631 -0.018086633 0.12125167
v -0.033760168 -0.03320707 0.14554599
v -0.060996965 0.0013826218 0.16075507
vt 0.15004097 0.34343523
vt 0.14409703 0.43457258
vt 0.15922686 0.3893792
vt 0.23465289 0.35388362
vt 0.21166255 0.39840686
vt 0.23465289 0.36599022
vt 0.20190986 0.24570996
vt 0.20324267 0.2547348
vt 0.16444767 0.25081387
vt 0.15004097 0.23547128
vt 0.18904349 0.23445779
vt 0.16444767 0.22104481
vt 0.15922686 0.24670888
vt 0.17116989 0.4332818
vt 0.19677934 0.4332818
vt 0.18189621 0.4332818
vt 0.19677934 0.4332818
vt 0.18189621 0.4332818
vt 0.19677934 0.4332818
vt 0.21166255 0.4332818
vt 0.21612634 0.4332818
vt 0.21166255 0.4332818
vt 0.1670328 0.30758053
vt 0.18904349 0.283396
vt 0.15922686 0.29732436
vt 0.19257742 0.31070292
vt 0.22120686 0.28638923
vt 0.21681277 0.3120951
vt 0.22819848 0.22660331
vt 0.22120686 0.20824024
vt 0.21681277 0.23800224
vt 0.23465289 0.21116823
vt 0.22274154 0.18931668
vt 0.20324267 0.29595065
vt 0.23465289 0.3287645
vt 0.19677934 0.3286355
vt 0.23465289 0.30269367
vt 0.15004097 0.33188245
vt 0.15890585 0.34568667
vt 0.14409703 0.34897035
vt 0.16639836 0.32921648
vt 0.18189621 0.41901478
vt 0.19257742 0.4040719
vt 0.1670328 0.40089774
vt 0.19677934 0.41901478
vt 0.21166255 0.41901478
vt 0.21681277 0.40548718
vt 0.21681277 0.38513893
vt 0.22932415 0.38407043
vt 0.22819848 0.3706311
vt 0.21166255 0.40474775
vt 0.21612634 0.40474775
vt 0.19677934 0.41705918
vt 0.21166255 0.49034995
vt 0.19677934 0.49034995
vt 0.23465289 0.41753715
vt 0.16804487 0.48797575
vt 0.14409703 0.48238072
vt 0.15890585 0.478883
vt 0.15365109 0.49055743
vt 0.18189621 0.4935204
vt 0.17116989 0.4935204
vt 0.23465289 0.26862332
vt 0.20190986 0.24095426
vt 0.22274154 0.25267363
vt 0.20324267 0.25518602
vt 0.16639836 0.3677747
vt 0.19677934 0.39148176
vt 0.15890585 0.39148176
vt 0.20324267 0.3587969
vt 0.20250414 0.53156585
vt 0.21738727 0.50583184
vt 0.21738727 0.53156585
vt 0.1886528 0.52181774
vt 0.17951378 0.50583184
vt 0.16639836 0.23199347
vt 0.16444767 0.22104481
vt 0.20324267 0.22385687
vt 0.15004097 0.23547128
vt 0.23465289 0.374389
vt 0.23465289 0.31600183
vt 0.23465289 0.34719566
vt 0.23465289 0.27778763
vt 0.22274154 0.24813098
vt 0.23465289 0.35388362
vt 0.21612634 0.39840686
vt 0.21166255 0.39840686
vt 0.22932415 0.37594128
vt 0.22120686 0.20824024
vt 0.16444767 0.18711922
vt 0.18904349 0.20477468
vt 0.20190986 0.18230096
vt 0.22274154 0.18931668
vt 0.22819848 0.2917148
vt 0.23465289 0.28647602
vt 0.23465289 0.2767183
vt 0.22932415 0.30197418
vt 0.15922686 0.5161973
vt 0.14409703 0.53300947
vt 0.1670328 0.52991766
vt 0.15365109 0.54823995
vt 0.18189621 0.553759
vt 0.17116989 0.553759
vn -0.9938704 0.10142614 -0.043981884
vn -0.94888496 -0.047194414 0.31207383
vn -0.8729566 -0.45039248 0.18733212
vn 0.97459376 -0.12151697 0.1881506
vn 0.95011157 -0.026011458 0.3108239
vn 0.9509679 -0.16566089 0.2611828
vn 0.10218927 -0.20051531 -0.9743464
vn 0.04547065 0.33756784 -0.9402023
vn -0.632819 -0.16570434 -0.7563612
vn -0.8801206 -0.28302422 -0.38116282
vn -0.19668838 -0.5480759 -0.81297386
vn -0.632819 -0.16570434 -0.7563612
vn -0.6229019 -0.5230156 -0.5817627
vn 0.015449577 -0.33119956 0.94343424
vn -0.021255994 -0.3541575 0.93494415
vn 0.003779839 -0.4000098 0.916503
vn -0.035169195 -0.33024135 0.94324106
vn -0.01503062 -0.28784648 0.95755863
vn -0.06550666 -0.3374024 0.9390785
vn -0.065619074 -0.33756375 0.9390127
vn -0.065707654 -0.33842194 0.9386976
vn -0.06582941 -0.33905202 0.9384616
vn -0.03785279 -0.9928054 0.113598675
vn -0.0069973376 -0.993978 0.10935557
vn -0.022668725 -0.99254805 0.11972666
vn -0.019289626 -0.9945011 0.10293356
vn 0.006730423 -0.99469733 0.102625094
vn -0.007901278 -0.9955611 0.09378522
vn 0.9417723 -0.3053889 0.14072147
vn 0.9488124 -0.3154757 0.0151705835
vn 0.89675295 -0.32802716 0.2970392
vn 0.9789153 -0.20401102 -0.010215828
vn 0.9393855 -0.2449323 -0.23992288
vn 0.22429977 0.964225 0.14127894
vn 0.46926093 0.85086656 0.23626316
vn 0.23701224 0.9414144 0.23992497
vn 0.35954204 0.90726006 0.2181945
vn -0.9938704 0.10142614 -0.043981884
vn -0.9155523 0.37483394 0.14581995
vn -0.94888496 -0.047194414 0.31207383
vn -0.93994015 0.33929363 -0.03731291
vn -0.016193673 -0.70772845 0.70629895
vn -0.13240741 -0.716953 0.6844317
vn -0.20314087 -0.7350358 0.64688194
vn -0.06128905 -0.6853988 0.72558403
vn -0.1533001 -0.6819707 0.7151329
vn -0.08618372 -0.7064942 0.7024515
vn 0.89675295 -0.32802716 0.2970392
vn 0.94068223 -0.13770576 0.31008705
vn 0.9417723 -0.3053889 0.14072147
vn 0.76396275 -0.4437516 0.46845013
vn 0.91602683 -0.16140544 0.3672099
vn 0.23701224 0.9414144 0.23992497
vn 0.41536647 0.83790725 0.3540934
vn 0.10497491 0.90485895 0.41256577
vn 0.46926093 0.85086656 0.23626316
vn -0.7621105 0.3465132 0.5469152
vn -0.94888496 -0.047194414 0.31207383
vn -0.9155523 0.37483394 0.14581995
vn -0.7303897 -0.22697563 0.6442149
vn -0.72987 0.39027575 0.56122595
vn -0.842974 0.31133118 0.43871143
vn 0.4227011 0.25202003 -0.8705227
vn 0.10218927 -0.20051531 -0.9743464
vn 0.40470025 -0.09877827 -0.90909874
vn 0.04547065 0.33756784 -0.9402023
vn -0.02821898 0.9970221 0.071768016
vn 0.23701224 0.9414144 0.23992497
vn -0 0.98307526 0.18320192
vn 0.22429977 0.964225 0.14127894
vn -0.083054304 0.8876925 0.45288414
vn 0.23701224 0.9414144 0.23992497
vn 0.10497491 0.90485895 0.41256577
vn 0.120524235 0.88884115 0.44208062
vn -0 0.98307526 0.18320192
vn -0.56793886 0.44102287 -0.6949419
vn -0.632819 -0.16570434 -0.7563612
vn 0.04547065 0.33756784 -0.9402023
vn -0.8801206 -0.28302422 -0.38116282
vn 0.9509679 -0.16566089 0.2611828
vn 0.9789153 -0.20401102 -0.010215828
vn 0.97459376 -0.12151697 0.1881506
vn 0.9878092 -0.13494277 -0.07761133
vn 0.9393855 -0.2449323 -0.23992288
vn 0.97459376 -0.12151697 0.1881506
vn 0.91602683 -0.16140544 0.3672099
vn 0.95011157 -0.026011458 0.3108239
vn 0.94068223 -0.13770576 0.31008705
vn 0.11705826 -0.56318104 -0.8180003
vn -0.632819 -0.16570434 -0.7563612
vn -0.19668838 -0.5480759 -0.81297386
vn 0.10218927 -0.20051531 -0.9743464
vn 0.40470025 -0.09877827 -0.90909874
vn 0.9417723 -0.3053889 0.14072147
vn 0.97459376 -0.12151697 0.1881506
vn 0.9789153 -0.20401102 -0.010215828
vn 0.94068223 -0.13770576 0.31008705
vn -0.8729566 -0.45039248 0.18733212
vn -0.94888496 -0.047194414 0.31207383
vn -0.68545306 -0.56758654 0.45606983
vn -0.7303897 -0.22697563 0.6442149
vn -0.45208922 -0.6308326 0.63060737
vn -0.842974 0.31133118 0.43871143
g RockDebris01_GEO_0
f 3/3/3 2/2/2 1/1/1
f 6/6/6 5/5/5 4/4/4
f 9/9/9 8/8/8 7/7/7
f 12/12/12 11/11/11 10/10/10
f 13/13/13 10/10/10 11/11/11
f 16/16/16 15/15/15 14/14/14
f 17/17/17 14/14/14 15/15/15
f 14/14/14 17/17/17 18/18/18
f 19/19/19 18/18/18 17/17/17
f 19/19/19 17/17/17 20/20/20
f 21/21/21 20/20/20 17/17/17
f 17/17/17 15/15/15 21/21/21
f 22/22/22 21/21/21 15/15/15
f 25/25/25 24/24/24 23/23/23
f 26/26/26 23/23/23 24/24/24
f 24/24/24 27/27/27 26/26/26
f 28/28/28 26/26/26 27/27/27
f 31/31/31 30/30/30 29/29/29
f 32/32/32 29/29/29 30/30/30
f 33/33/33 32/32/32 30/30/30
f 36/36/36 35/35/35 34/34/34
f 37/37/37 34/34/34 35/35/35
f 40/40/40 39/39/39 38/38/38
f 41/41/41 38/38/38 39/39/39
f 44/44/44 43/43/43 42/42/42
f 45/45/45 42/42/42 43/43/43
f 45/45/45 43/43/43 46/46/46
f 47/47/47 46/46/46 43/43/43
f 50/50/50 49/49/49 48/48/48
f 49/49/49 51/51/51 48/48/48
f 52/52/52 51/51/51 49/49/49
f 55/55/55 54/54/54 53/53/53
f 56/56/56 53/53/53 54/54/54
f 59/59/59 58/58/58 57/57/57
f 60/60/60 57/57/57 58/58/58
f 57/57/57 60/60/60 61/61/61
f 62/62/62 61/61/61 60/60/60
f 65/65/65 64/64/64 63/63/63
f 66/66/66 63/63/63 64/64/64
f 69/69/69 68/68/68 67/67/67
f 70/70/70 67/67/67 68/68/68
f 73/73/73 72/72/72 71/71/71
f 74/74/74 71/71/71 72/72/72
f 75/75/75 74/74/74 72/72/72
f 78/78/78 77/77/77 76/76/76
f 79/79/79 76/76/76 77/77/77
f 82/82/82 81/81/81 80/80/80
f 80/80/80 81/81/81 83/83/83
f 83/83/83 81/81/81 84/84/84
f 87/87/87 86/86/86 85/85/85
f 85/85/85 86/86/86 88/88/88
f 91/91/91 90/90/90 89/89/89
f 90/90/90 92/92/92 89/89/89
f 89/89/89 92/92/92 93/93/93
f 96/96/96 95/95/95 94/94/94
f 97/97/97 94/94/94 95/95/95
f 100/100/100 99/99/99 98/98/98
f 100/100/100 101/101/101 99/99/99
f 100/100/100 102/102/102 101/101/101
f 103/103/103 101/101/101 102/102/102
