g WoodChips01_GEO
v 0.0034313202 -0.1255188 -0.012067505
v -0.05377388 0.123168945 -0.012067505
v -0.04581642 -0.10040283 -0.012067505
v -0.007505417 0.111328125 -0.012067505
v 0.05377388 0.15124512 -0.012067505
v 0.05377388 -0.15124512 -0.012067505
v -0.05377388 0.123168945 0.012067505
v 0.0034313202 -0.1255188 0.012067505
v -0.04581642 -0.10040283 0.012067505
v -0.007505417 0.111328125 0.012067505
v 0.05377388 -0.15124512 0.012067505
v 0.05377388 0.15124512 0.012067505
v -0.04581642 -0.10040283 0.012067505
v 0.0034313202 -0.1255188 -0.012067505
v -0.04581642 -0.10040283 -0.012067505
v 0.0034313202 -0.1255188 0.012067505
v 0.05377388 -0.15124512 -0.012067505
v 0.05377388 -0.15124512 0.012067505
v 0.05377388 -0.15124512 -0.012067505
v 0.05377388 0.15124512 0.012067505
v 0.05377388 0.15124512 -0.012067505
v 0.05377388 -0.15124512 0.012067505
v 0.05377388 0.15124512 0.012067505
v -0.007505417 0.111328125 -0.012067505
v 0.05377388 0.15124512 -0.012067505
v -0.007505417 0.111328125 0.012067505
v -0.05377388 0.123168945 -0.012067505
v -0.05377388 0.123168945 0.012067505
v -0.05377388 0.123168945 -0.012067505
v -0.04581642 -0.10040283 0.012067505
v -0.04581642 -0.10040283 -0.012067505
v -0.05377388 0.123168945 0.012067505
vt 0.67698336 0.14762105
vt 0.6710123 0.38722068
vt 0.67184293 0.17181915
vt 0.6758418 0.37581253
vt 0.68223816 0.4142708
vt 0.68223816 0.122834876
vt 0.6710123 0.41358012
vt 0.67698336 0.11583455
vt 0.67184293 0.14590505
vt 0.6758418 0.39940345
vt 0.68223816 0.08503328
vt 0.68223816 0.44719476
vt 0.67184293 0.069389045
vt 0.67698336 0.045190938
vt 0.67184293 0.069389045
vt 0.67698336 0.045190938
vt 0.68223816 0.020404767
vt 0.68223816 0.020404767
vt 0.68223816 0.020404767
vt 0.68223816 0.31184068
vt 0.68223816 0.31184068
vt 0.68223816 0.020404767
vt 0.68223816 0.31184068
vt 0.6758418 0.27338243
vt 0.68223816 0.31184068
vt 0.6758418 0.27338243
vt 0.6710123 0.28479058
vt 0.6710123 0.28479058
vt 0.6710123 0.28479058
vt 0.67184293 0.069389045
vt 0.67184293 0.069389045
vt 0.6710123 0.28479058
vn -0 0 -1
vn -0 0 -1
vn -0 0 -1
vn -0 0 -1
vn -0 0 -1
vn -0 0 -1
vn -0 0 1
vn -0 0 1
vn -0 0 1
vn -0 0 1
vn -0 0 1
vn -0 0 1
vn -0.45432067 -0.89083827 0
vn -0.4546856 -0.89065206 0
vn -0.4543206 -0.89083827 0
vn -0.4546856 -0.89065206 0
vn -0.45505038 -0.8904657 0
vn -0.45505038 -0.8904657 0
vn 1 0 0
vn 1 0 0
vn 1 0 0
vn 1 0 0
vn -0.5458095 0.8379093 0
vn -0.16268198 0.98667854 0
vn -0.54580945 0.83790934 0
vn -0.16268195 0.98667854 0
vn 0.24792568 0.96877915 0
vn 0.24792565 0.96877915 0
vn -0.9993672 -0.035569888 0
vn -0.9993672 -0.035569888 0
vn -0.9993672 -0.03556989 0
vn -0.9993672 -0.03556989 0
g WoodChips01_GEO_0
f 3/3/3 2/2/2 1/1/1
f 4/4/4 1/1/1 2/2/2
f 4/4/4 5/5/5 1/1/1
f 6/6/6 1/1/1 5/5/5
f 9/9/9 8/8/8 7/7/7
f 10/10/10 7/7/7 8/8/8
f 8/8/8 11/11/11 10/10/10
f 12/12/12 10/10/10 11/11/11
f 15/15/15 14/14/14 13/13/13
f 16/16/16 13/13/13 14/14/14
f 14/14/14 17/17/17 16/16/16
f 18/18/18 16/16/16 17/17/17
f 21/21/21 20/20/20 19/19/19
f 22/22/22 19/19/19 20/20/20
f 25/25/25 24/24/24 23/23/23
f 26/26/26 23/23/23 24/24/24
f 24/24/24 27/27/27 26/26/26
f 28/28/28 26/26/26 27/27/27
f 31/31/31 30/30/30 29/29/29
f 32/32/32 29/29/29 30/30/30
